<svg xmlns="http://www.w3.org/2000/svg" width="358" height="48" viewBox="0 0 358 48">
  <defs><clipPath id="clip"><path d="M0,0h358v48h-358z"/></clipPath><linearGradient id="winnerShade" x1="179" y1="48" x2="179" y2="0" gradientUnits="userSpaceOnUse"><stop offset="0" stop-color="#1e1e20" stop-opacity="1"/><stop offset="1" stop-color="#1e1e20" stop-opacity="0"/></linearGradient></defs>
  <g clip-path="url(#clip)">
    <path fill="#f7d002" d="M145.89,28.36C145.87,28.4 145.85,28.43 145.82,28.46C145.75,28.21 145.67,27.96 145.57,27.71C145.5,27.54 145.43,27.37 145.34,27.21C145.22,26.98 144.98,26.55 144.98,26.55C144.94,26.5 144.94,26.34 144.99,26.25C144.99,26.24 145.01,26.24 145.02,26.24C145.03,26.24 145.03,26.26 145.03,26.27C145.03,26.36 145.06,26.41 145.12,26.46C145.26,26.58 145.76,26.22 146.23,25.61C146.7,25 146.91,24.44 146.76,24.34C146.69,24.3 146.64,24.28 146.54,24.3C146.54,24.31 146.52,24.31 146.51,24.3C146.51,24.3 146.5,24.28 146.51,24.27C146.59,24.2 146.74,24.16 146.8,24.18C146.8,24.18 147.28,24.3 147.54,24.35C147.73,24.38 147.92,24.41 148.1,24.42C148.37,24.45 148.64,24.46 148.91,24.45C148.89,24.49 148.87,24.53 148.84,24.56C148.69,24.69 148.46,24.68 148.34,24.68L148.34,24.68C148.33,24.78 148.32,24.99 148.2,25.11C148.18,25.1 148.15,25.07 148.14,25.05C148.03,24.95 147.99,24.81 148,24.67C147.85,24.7 147.7,24.76 147.58,24.86C147.55,24.88 147.53,24.91 147.51,24.94C147.43,25.08 147.45,25.24 147.54,25.36C147.43,25.37 147.32,25.43 147.25,25.54C147.22,25.6 147.2,25.67 147.2,25.73C147.21,25.76 147.21,25.79 147.22,25.82C147.22,25.84 147.23,25.85 147.23,25.86C147.23,25.87 147.23,25.87 147.24,25.88L147.23,25.88C147.27,26.01 147.34,26.13 147.43,26.24C147.47,26.29 147.52,26.33 147.57,26.37C147.57,26.37 147.57,26.37 147.57,26.36C147.65,26.24 147.78,26.14 147.94,26.12C147.96,26.11 147.98,26.11 147.99,26.11C148,26.13 148,26.14 148,26.16C148.02,26.3 147.98,26.44 147.9,26.54C147.89,26.55 147.88,26.56 147.86,26.58C148.03,26.64 148.23,26.84 148.26,27.03C148.26,27.05 148.27,27.07 148.27,27.09L148.27,27.1L148.25,27.11C148.23,27.11 148.2,27.12 148.18,27.12C147.99,27.15 147.73,27.03 147.62,26.89C147.61,26.9 147.6,26.92 147.59,26.93C147.52,27.04 147.4,27.11 147.25,27.13C147.23,27.14 147.22,27.14 147.2,27.14C147.2,27.12 147.19,27.11 147.19,27.09C147.17,26.93 147.22,26.78 147.33,26.68C147.33,26.67 147.34,26.67 147.34,26.67C147.28,26.63 147.23,26.6 147.17,26.58C147.02,26.51 146.86,26.48 146.7,26.49C146.68,26.49 146.65,26.5 146.62,26.5C146.56,26.52 146.5,26.55 146.45,26.6C146.37,26.69 146.33,26.81 146.35,26.92C146.21,26.86 146.04,26.89 145.93,27C145.88,27.05 145.85,27.09 145.83,27.15C145.79,27.28 145.77,27.42 145.79,27.55C145.92,27.5 146.07,27.5 146.2,27.57C146.22,27.58 146.24,27.59 146.26,27.6C146.17,27.75 146.02,27.84 145.85,27.85C145.85,27.85 145.85,27.85 145.85,27.85C145.96,27.99 145.98,28.19 145.89,28.36ZM146.51,24.91C146.51,24.91 146.21,25.48 145.72,25.96C145.72,25.96 144.97,26.4 144.33,25.62C143.7,24.84 143.92,23.99 144.69,23.39C145.45,22.79 146.13,22.8 146.42,23.16C146.71,23.51 146.5,23.77 146.38,23.86C146.26,23.96 145.95,24.02 145.72,23.74C145.72,23.74 145.98,23.63 145.83,23.44C145.68,23.26 145.33,23.34 144.98,23.62C144.63,23.89 144.26,24.43 144.81,25.11C145.4,25.82 145.76,25.59 146,25.41L144.99,24.18C144.99,24.18 144.89,24.07 144.78,24.16C144.78,24.16 144.82,23.96 145.12,23.72C145.43,23.49 145.59,23.51 145.59,23.51C145.59,23.51 145.45,23.63 145.55,23.75C145.65,23.88 146.51,24.91 146.51,24.91Z"/>
    <path fill="#f7d002" d="M179.18,5.58C179.26,5.61 179.32,5.65 179.38,5.69C178.94,5.85 178.51,6.04 178.09,6.25C177.8,6.39 177.51,6.55 177.23,6.73C176.84,6.97 176.12,7.47 176.12,7.47C176.03,7.53 175.75,7.57 175.59,7.5C175.56,7.49 175.56,7.46 175.56,7.45C175.57,7.43 175.6,7.43 175.62,7.42C175.78,7.4 175.86,7.34 175.94,7.23C176.12,6.97 175.4,6.2 174.22,5.51C173.04,4.82 172.01,4.56 171.86,4.84C171.8,4.96 171.78,5.05 171.84,5.21C171.85,5.22 171.86,5.25 171.85,5.26C171.83,5.27 171.81,5.28 171.78,5.27C171.65,5.16 171.55,4.9 171.57,4.79C171.57,4.79 171.7,3.95 171.74,3.5C171.76,3.18 171.78,2.86 171.77,2.53C171.77,2.08 171.74,1.61 171.68,1.16C171.74,1.19 171.82,1.22 171.88,1.27C172.14,1.49 172.17,1.88 172.18,2.09L172.18,2.09C172.37,2.08 172.74,2.07 172.98,2.25C172.96,2.28 172.91,2.34 172.89,2.37C172.71,2.56 172.47,2.66 172.23,2.66C172.31,2.92 172.44,3.16 172.64,3.35C172.68,3.39 172.74,3.43 172.8,3.45C173.05,3.56 173.35,3.5 173.54,3.32C173.58,3.52 173.72,3.69 173.92,3.78C174.03,3.83 174.15,3.84 174.26,3.83C174.32,3.82 174.37,3.8 174.43,3.78C174.45,3.78 174.47,3.77 174.49,3.76C174.5,3.76 174.51,3.75 174.52,3.75L174.52,3.75C174.74,3.67 174.96,3.53 175.13,3.35C175.21,3.27 175.28,3.19 175.34,3.09C175.34,3.09 175.33,3.09 175.33,3.08C175.08,2.98 174.89,2.78 174.82,2.51C174.81,2.48 174.81,2.45 174.8,2.42C174.83,2.41 174.86,2.4 174.89,2.4C175.13,2.33 175.38,2.38 175.58,2.51C175.61,2.52 175.63,2.54 175.65,2.56C175.73,2.27 176.06,1.88 176.38,1.8C176.42,1.79 176.46,1.79 176.49,1.78L176.52,1.78L176.53,1.8C176.54,1.84 176.56,1.88 176.57,1.92C176.65,2.23 176.48,2.71 176.25,2.92C176.28,2.93 176.3,2.94 176.33,2.95C176.54,3.06 176.7,3.26 176.76,3.5C176.76,3.53 176.77,3.56 176.77,3.58C176.74,3.59 176.72,3.6 176.69,3.61C176.41,3.68 176.13,3.61 175.93,3.44C175.92,3.44 175.92,3.44 175.91,3.43C175.86,3.53 175.81,3.64 175.77,3.74C175.69,4 175.67,4.28 175.71,4.55C175.72,4.59 175.73,4.64 175.74,4.68C175.78,4.78 175.85,4.87 175.95,4.95C176.12,5.08 176.34,5.12 176.54,5.07C176.46,5.31 176.54,5.59 176.76,5.77C176.85,5.83 176.93,5.89 177.04,5.9C177.28,5.96 177.53,5.96 177.76,5.91C177.65,5.7 177.63,5.44 177.72,5.2C177.74,5.17 177.75,5.13 177.77,5.1C178.05,5.22 178.24,5.47 178.28,5.74C178.28,5.74 178.28,5.74 178.28,5.75C178.52,5.54 178.87,5.47 179.18,5.58ZM172.92,5.16C172.92,5.16 174.01,5.57 174.94,6.3C174.94,6.3 175.85,7.5 174.58,8.72C173.31,9.95 171.75,9.72 170.54,8.53C169.34,7.33 169.24,6.18 169.82,5.63C170.4,5.07 170.9,5.38 171.08,5.57C171.27,5.76 171.44,6.27 170.99,6.7C170.99,6.7 170.73,6.28 170.43,6.57C170.13,6.86 170.35,7.44 170.9,7.99C171.45,8.53 172.48,9.07 173.58,8.01C174.75,6.88 174.27,6.3 173.9,5.94L171.89,7.87C171.89,7.87 171.72,8.05 171.91,8.24C171.91,8.24 171.54,8.2 171.06,7.73C170.58,7.25 170.6,6.96 170.6,6.96C170.6,6.96 170.83,7.19 171.03,6.99C171.24,6.79 172.92,5.16 172.92,5.16Z"/>
    <path fill="#f7d002" d="M353.04,40.57C353.1,40.58 353.15,40.59 353.2,40.61C352.92,40.8 352.66,41.01 352.41,41.24C352.23,41.4 352.06,41.56 351.9,41.74C351.67,41.98 351.27,42.46 351.27,42.46C351.22,42.52 351.03,42.6 350.9,42.58C350.88,42.58 350.87,42.56 350.87,42.55C350.87,42.54 350.89,42.53 350.91,42.52C351.02,42.48 351.06,42.42 351.09,42.33C351.17,42.11 350.5,41.7 349.53,41.43C348.57,41.16 347.79,41.18 347.74,41.4C347.72,41.49 347.72,41.56 347.8,41.66C347.8,41.67 347.82,41.69 347.81,41.7C347.8,41.71 347.79,41.72 347.77,41.71C347.65,41.66 347.53,41.5 347.52,41.42C347.52,41.42 347.45,40.8 347.38,40.48C347.33,40.25 347.27,40.02 347.21,39.79C347.11,39.47 347,39.15 346.86,38.84C346.91,38.85 346.97,38.86 347.03,38.88C347.25,38.99 347.35,39.26 347.4,39.41L347.4,39.41C347.54,39.36 347.79,39.29 348,39.37C347.99,39.4 347.97,39.44 347.96,39.47C347.88,39.64 347.73,39.75 347.55,39.8C347.66,39.96 347.8,40.11 347.98,40.21C348.02,40.23 348.07,40.24 348.11,40.25C348.32,40.28 348.51,40.18 348.61,40.02C348.68,40.15 348.81,40.25 348.97,40.27C349.06,40.29 349.14,40.28 349.22,40.25C349.26,40.23 349.29,40.21 349.33,40.18C349.34,40.17 349.36,40.16 349.37,40.15C349.38,40.15 349.38,40.15 349.39,40.14L349.38,40.15C349.53,40.04 349.65,39.91 349.73,39.75C349.77,39.68 349.8,39.61 349.83,39.53C349.83,39.53 349.82,39.53 349.82,39.53C349.63,39.5 349.45,39.39 349.34,39.21C349.33,39.19 349.32,39.17 349.32,39.16C349.33,39.14 349.35,39.13 349.37,39.12C349.53,39.03 349.72,39.02 349.88,39.07C349.9,39.08 349.92,39.09 349.94,39.09C349.94,38.87 350.09,38.54 350.3,38.43C350.33,38.41 350.35,38.4 350.37,38.39L350.39,38.39L350.4,38.4C350.42,38.42 350.44,38.45 350.45,38.48C350.57,38.68 350.55,39.05 350.43,39.24C350.45,39.24 350.48,39.24 350.5,39.25C350.66,39.29 350.82,39.39 350.91,39.55C350.92,39.57 350.93,39.59 350.94,39.61C350.92,39.62 350.9,39.63 350.88,39.64C350.7,39.74 350.49,39.74 350.31,39.67C350.31,39.67 350.3,39.66 350.3,39.66C350.28,39.74 350.27,39.82 350.27,39.9C350.26,40.11 350.3,40.3 350.39,40.48C350.4,40.51 350.42,40.54 350.43,40.57C350.48,40.63 350.55,40.69 350.63,40.72C350.78,40.78 350.95,40.77 351.08,40.69C351.07,40.88 351.18,41.07 351.37,41.15C351.45,41.18 351.52,41.2 351.6,41.19C351.78,41.18 351.95,41.14 352.11,41.06C351.98,40.93 351.92,40.76 351.93,40.57C351.94,40.55 351.94,40.52 351.95,40.49C352.17,40.52 352.35,40.66 352.44,40.85C352.44,40.85 352.44,40.85 352.44,40.85C352.56,40.66 352.79,40.55 353.04,40.57ZM348.55,41.43C348.55,41.43 349.39,41.52 350.2,41.86C350.2,41.86 351.08,42.54 350.44,43.63C349.8,44.72 348.65,44.85 347.56,44.23C346.47,43.62 346.17,42.83 346.46,42.33C346.75,41.83 347.17,41.96 347.34,42.06C347.51,42.15 347.73,42.48 347.5,42.87C347.5,42.87 347.24,42.62 347.09,42.88C346.93,43.14 347.2,43.51 347.7,43.79C348.2,44.07 349.03,44.26 349.59,43.31C350.19,42.3 349.73,41.98 349.4,41.79L348.38,43.53C348.38,43.53 348.29,43.68 348.46,43.78C348.46,43.78 348.2,43.82 347.76,43.58C347.33,43.33 347.28,43.12 347.28,43.12C347.28,43.12 347.49,43.24 347.59,43.06C347.7,42.89 348.55,41.43 348.55,41.43Z"/>
    <path fill="#f7d002" d="M331.32,12.5C331.35,12.49 331.38,12.49 331.41,12.49C331.3,12.63 331.2,12.79 331.12,12.94C331.06,13.06 331,13.17 330.95,13.29C330.88,13.45 330.77,13.76 330.77,13.76C330.75,13.8 330.67,13.87 330.6,13.89C330.59,13.89 330.58,13.88 330.58,13.88C330.58,13.87 330.59,13.86 330.59,13.86C330.64,13.81 330.65,13.78 330.65,13.73C330.65,13.6 330.23,13.51 329.69,13.53C329.14,13.56 328.75,13.7 328.76,13.82C328.77,13.87 328.79,13.91 328.84,13.94C328.85,13.95 328.86,13.96 328.86,13.96C328.86,13.97 328.85,13.98 328.84,13.98C328.77,13.97 328.67,13.91 328.66,13.87C328.66,13.87 328.5,13.57 328.41,13.41C328.34,13.3 328.27,13.19 328.19,13.09C328.08,12.94 327.96,12.8 327.83,12.67C327.86,12.66 327.89,12.65 327.93,12.66C328.06,12.67 328.16,12.79 328.22,12.86L328.22,12.86C328.28,12.82 328.39,12.73 328.52,12.74C328.52,12.76 328.51,12.78 328.51,12.8C328.5,12.9 328.45,12.98 328.37,13.03C328.45,13.1 328.55,13.15 328.66,13.17C328.69,13.18 328.71,13.17 328.74,13.17C328.85,13.15 328.93,13.07 328.95,12.97C329.01,13.02 329.09,13.05 329.18,13.04C329.23,13.03 329.27,13.01 329.3,12.98C329.32,12.96 329.33,12.95 329.35,12.93C329.35,12.92 329.36,12.91 329.36,12.91C329.36,12.9 329.37,12.9 329.37,12.9L329.37,12.9C329.42,12.82 329.46,12.73 329.47,12.64C329.48,12.6 329.48,12.55 329.48,12.51C329.48,12.51 329.48,12.51 329.47,12.51C329.37,12.53 329.26,12.5 329.17,12.43C329.16,12.42 329.15,12.41 329.15,12.41C329.15,12.4 329.16,12.39 329.17,12.38C329.23,12.31 329.33,12.27 329.42,12.27C329.43,12.27 329.44,12.27 329.45,12.27C329.41,12.16 329.43,11.96 329.52,11.87C329.52,11.86 329.53,11.85 329.55,11.84L329.55,11.83L329.56,11.84C329.57,11.84 329.59,11.86 329.6,11.86C329.7,11.95 329.76,12.14 329.73,12.26C329.75,12.26 329.76,12.25 329.77,12.25C329.86,12.24 329.96,12.27 330.04,12.34C330.05,12.35 330.05,12.35 330.06,12.36C330.05,12.37 330.05,12.38 330.04,12.39C329.96,12.47 329.86,12.51 329.75,12.5C329.75,12.5 329.75,12.5 329.75,12.5C329.75,12.54 329.76,12.58 329.77,12.63C329.81,12.73 329.87,12.83 329.94,12.9C329.96,12.91 329.97,12.93 329.98,12.94C330.02,12.96 330.07,12.98 330.11,12.98C330.2,12.99 330.28,12.95 330.34,12.89C330.37,12.99 330.46,13.07 330.57,13.07C330.62,13.08 330.66,13.08 330.7,13.06C330.79,13.02 330.87,12.97 330.93,12.9C330.85,12.86 330.78,12.78 330.75,12.68C330.75,12.67 330.75,12.66 330.74,12.64C330.86,12.62 330.98,12.66 331.06,12.74C331.06,12.74 331.06,12.74 331.06,12.74C331.09,12.62 331.19,12.53 331.32,12.5ZM329.18,13.7C329.18,13.7 329.63,13.6 330.11,13.64C330.11,13.64 330.69,13.83 330.56,14.5C330.44,15.17 329.88,15.43 329.2,15.3C328.53,15.17 328.23,14.82 328.29,14.51C328.34,14.21 328.58,14.2 328.68,14.23C328.79,14.25 328.96,14.37 328.92,14.61C328.92,14.61 328.74,14.53 328.71,14.69C328.68,14.85 328.89,14.99 329.19,15.05C329.5,15.11 329.96,15.06 330.07,14.48C330.18,13.86 329.89,13.78 329.68,13.74L329.49,14.8C329.49,14.8 329.48,14.89 329.58,14.91C329.58,14.91 329.45,14.98 329.18,14.93C328.92,14.88 328.86,14.78 328.86,14.78C328.86,14.78 328.98,14.81 329,14.7C329.02,14.59 329.18,13.7 329.18,13.7Z"/>
    <path fill="#f7d002" d="M144.09,9.01l-0.94,1.29l-2.15,-1.56l0.94,-1.29z"/>
    <path fill="#f7d002" d="M203.09,6.01l-0.94,1.29l-2.15,-1.56l0.94,-1.29z"/>
    <path fill="#f7d002" d="M288.13,18.46l-1.13,-1.13l1.88,-1.88l1.13,1.13z"/>
    <path fill="#f7d002" d="M209.55,21.5l-2.1,1l-1.45,-3.05l2.1,-1z"/>
    <path fill="#f7d002" d="M9.14,39.67l1.19,-1.37l2.28,1.98l-1.19,1.37z"/>
    <path fill="#f7d002" d="M93.34,15.45l1.9,0.81l-1.34,3.17l-1.9,-0.81z"/>
    <path fill="#f7d002" d="M172.04,37.02l-0.64,-0.95l1.58,-1.06l0.64,0.95z"/>
    <path fill="#f7d002" d="M254.64,22.46l-0.64,-0.95l1.58,-1.06l0.64,0.95z"/>
    <path fill="#f7d002" d="M207.64,43.46l-0.64,-0.95l1.58,-1.06l0.64,0.95z"/>
    <path fill="#f7d002" d="M182.37,16.36m-0.76,0.42a0.87,0.87 106,1 1,1.52 -0.84a0.87,0.87 106,1 1,-1.52 0.84"/>
    <path fill="#f7d002" d="M245.18,2.63m-0.76,0.42a0.87,0.87 106,1 1,1.52 -0.84a0.87,0.87 106,1 1,-1.52 0.84"/>
    <path fill="#f7d002" d="M323.18,2.63m-0.76,0.42a0.87,0.87 106,1 1,1.52 -0.84a0.87,0.87 106,1 1,-1.52 0.84"/>
    <path fill="#f7d002" d="M60.72,21.39l-1.46,-1.18l1.97,-2.44l1.46,1.18z"/>
    <path fill="#f7d002" d="M107.72,2.6l0.06,1.79l-2.98,0.1l-0.06,-1.79z"/>
    <path fill="#f7d002" d="M73.96,44.36l0.06,1.79l-2.98,0.1l-0.06,-1.79z"/>
    <path fill="#f7d002" d="M16.06,6.51l1.56,-0.54l0.9,2.61l-1.56,0.54z"/>
    <path fill="#f7d002" d="M131.27,41.34l-0.69,-0.98l1.64,-1.15l0.69,0.98z"/>
    <path fill="#f7d002" d="M166.77,20.62l-0.7,1.83l-3.05,-1.17l0.7,-1.83z"/>
    <path fill="#f7d002" d="M41.57,6.06m-0.26,-0.8a0.84,0.84 117,1 1,0.52 1.6a0.84,0.84 117,1 1,-0.52 -1.6"/>
    <path fill="#f7d002" d="M4.65,4.1m1.62,-0.03a1.62,1.62 134,1 1,-3.25 0.06a1.62,1.62 134,1 1,3.25 -0.06"/>
    <path fill="#f7d002" d="M74.17,12.16m0.82,-0.13a0.83,0.83 126,1 1,-1.63 0.26a0.83,0.83 126,1 1,1.63 -0.26"/>
    <path fill="#f7d002" d="M308.51,45.96m-0.37,-1.14a1.2,1.2 117,1 1,0.74 2.28a1.2,1.2 117,1 1,-0.74 -2.28"/>
    <path fill="#f7d002" d="M337.51,19.96m-0.37,-1.14a1.2,1.2 117,1 1,0.74 2.28a1.2,1.2 117,1 1,-0.74 -2.28"/>
    <path fill="#f7d002" d="M122.3,8.75C122.37,8.69 122.45,8.66 122.53,8.63C122.41,9.14 122.33,9.66 122.28,10.18C122.24,10.55 122.22,10.91 122.22,11.28C122.22,11.8 122.27,12.78 122.27,12.78C122.28,12.9 122.14,13.19 121.97,13.3C121.95,13.32 121.92,13.31 121.9,13.29C121.89,13.28 121.91,13.25 121.92,13.23C122,13.06 121.99,12.95 121.92,12.81C121.78,12.48 120.57,12.68 119.17,13.36C117.76,14.04 116.87,14.86 117.05,15.17C117.13,15.3 117.21,15.38 117.4,15.41C117.42,15.42 117.46,15.42 117.46,15.44C117.46,15.46 117.46,15.49 117.42,15.5C117.23,15.56 116.92,15.5 116.82,15.41C116.82,15.41 116.08,14.77 115.66,14.46C115.36,14.24 115.04,14.02 114.72,13.83C114.27,13.55 113.79,13.29 113.31,13.07C113.38,13.03 113.46,12.97 113.54,12.95C113.91,12.84 114.32,13.05 114.54,13.18L114.54,13.17C114.65,12.99 114.86,12.63 115.19,12.52C115.21,12.56 115.23,12.64 115.25,12.68C115.33,12.96 115.28,13.25 115.13,13.48C115.43,13.56 115.75,13.58 116.06,13.52C116.13,13.5 116.2,13.47 116.26,13.43C116.53,13.26 116.65,12.95 116.59,12.65C116.81,12.74 117.06,12.72 117.27,12.58C117.39,12.5 117.48,12.4 117.54,12.29C117.56,12.23 117.58,12.17 117.59,12.1C117.6,12.08 117.61,12.05 117.61,12.03C117.61,12.02 117.61,12.01 117.61,12L117.62,12C117.67,11.73 117.67,11.45 117.6,11.18C117.57,11.06 117.53,10.94 117.47,10.82C117.47,10.82 117.46,10.83 117.46,10.83C117.21,11 116.88,11.05 116.57,10.95C116.54,10.94 116.51,10.93 116.48,10.91C116.49,10.88 116.5,10.85 116.51,10.82C116.6,10.55 116.8,10.34 117.05,10.23C117.08,10.22 117.11,10.21 117.14,10.2C116.9,9.94 116.73,9.39 116.84,9.04C116.86,9 116.87,8.97 116.89,8.93L116.9,8.9L116.94,8.91C116.98,8.92 117.03,8.93 117.07,8.94C117.43,9.06 117.8,9.52 117.86,9.86C117.89,9.84 117.92,9.82 117.94,9.81C118.18,9.68 118.47,9.65 118.75,9.74C118.78,9.75 118.81,9.76 118.84,9.78C118.83,9.81 118.82,9.84 118.81,9.87C118.71,10.17 118.47,10.39 118.18,10.49C118.17,10.49 118.17,10.49 118.16,10.49C118.23,10.61 118.3,10.71 118.38,10.81C118.58,11.06 118.85,11.25 119.14,11.37C119.18,11.39 119.24,11.4 119.29,11.42C119.41,11.45 119.54,11.44 119.68,11.4C119.92,11.32 120.09,11.13 120.16,10.91C120.36,11.14 120.68,11.24 120.98,11.13C121.11,11.09 121.21,11.04 121.29,10.96C121.49,10.76 121.64,10.53 121.74,10.28C121.46,10.25 121.2,10.12 121.02,9.88C121,9.85 120.97,9.81 120.95,9.77C121.24,9.58 121.6,9.56 121.9,9.69C121.9,9.69 121.9,9.69 121.9,9.69C121.85,9.34 121.99,8.97 122.3,8.75ZM118.02,14.37C118.02,14.37 119.09,13.6 120.39,13.17C120.39,13.17 122.13,13.06 122.56,15.01C122.98,16.96 121.79,18.28 119.87,18.68C117.95,19.08 116.76,18.46 116.57,17.57C116.38,16.69 116.99,16.41 117.29,16.35C117.6,16.29 118.2,16.44 118.35,17.13C118.35,17.13 117.78,17.12 117.88,17.58C117.98,18.04 118.68,18.19 119.56,18.01C120.44,17.83 121.6,17.19 121.24,15.51C120.85,13.71 119.98,13.8 119.39,13.92L120.06,17.01C120.06,17.01 120.14,17.28 120.43,17.22C120.43,17.22 120.17,17.54 119.41,17.7C118.64,17.86 118.37,17.66 118.37,17.66C118.37,17.66 118.73,17.59 118.66,17.27C118.6,16.96 118.02,14.37 118.02,14.37Z"/>
    <path fill="#f7d002" d="M294.43,3.09C294.53,3.11 294.62,3.14 294.7,3.18C294.22,3.47 293.75,3.8 293.31,4.15C293,4.4 292.7,4.66 292.41,4.94C292.01,5.32 291.28,6.09 291.28,6.09C291.19,6.19 290.86,6.3 290.65,6.26C290.62,6.26 290.61,6.22 290.61,6.2C290.61,6.18 290.65,6.17 290.67,6.16C290.86,6.1 290.93,6.01 291,5.86C291.15,5.5 290.08,4.75 288.5,4.21C286.92,3.66 285.62,3.61 285.51,3.98C285.47,4.14 285.47,4.25 285.58,4.42C285.59,4.44 285.62,4.47 285.6,4.49C285.59,4.5 285.56,4.52 285.53,4.51C285.34,4.41 285.15,4.12 285.15,3.99C285.15,3.99 285.09,2.95 285.02,2.41C284.96,2.02 284.89,1.62 284.8,1.24C284.68,0.69 284.52,0.14 284.33,-0.38C284.42,-0.36 284.52,-0.35 284.6,-0.3C284.96,-0.11 285.1,0.36 285.17,0.61L285.17,0.61C285.4,0.55 285.84,0.45 286.17,0.61C286.15,0.65 286.11,0.73 286.09,0.77C285.93,1.04 285.67,1.22 285.38,1.28C285.54,1.57 285.77,1.82 286.05,2.01C286.11,2.05 286.19,2.07 286.27,2.09C286.6,2.16 286.93,2.02 287.11,1.75C287.22,1.98 287.42,2.15 287.69,2.21C287.83,2.24 287.98,2.23 288.11,2.19C288.17,2.16 288.24,2.13 288.3,2.09C288.32,2.08 288.35,2.06 288.37,2.05C288.38,2.04 288.39,2.03 288.4,2.03L288.39,2.03C288.64,1.87 288.86,1.66 289.02,1.4C289.09,1.29 289.15,1.17 289.2,1.04C289.2,1.04 289.19,1.04 289.19,1.04C288.87,0.97 288.58,0.77 288.43,0.47C288.41,0.43 288.4,0.4 288.39,0.37C288.42,0.35 288.45,0.33 288.48,0.32C288.76,0.18 289.07,0.18 289.34,0.28C289.37,0.29 289.4,0.31 289.43,0.32C289.45,-0.04 289.75,-0.59 290.11,-0.76C290.15,-0.78 290.19,-0.79 290.23,-0.81L290.27,-0.82L290.29,-0.79C290.31,-0.76 290.34,-0.7 290.36,-0.66C290.54,-0.31 290.46,0.31 290.24,0.61C290.28,0.62 290.31,0.63 290.35,0.64C290.62,0.72 290.86,0.91 291,1.18C291.01,1.22 291.03,1.25 291.04,1.28C291.01,1.3 290.98,1.32 290.95,1.33C290.63,1.48 290.28,1.46 289.99,1.32C289.99,1.32 289.98,1.31 289.98,1.31C289.93,1.44 289.91,1.58 289.89,1.71C289.85,2.05 289.9,2.39 290.03,2.69C290.05,2.74 290.07,2.79 290.1,2.84C290.17,2.96 290.28,3.05 290.41,3.12C290.65,3.24 290.93,3.23 291.15,3.11C291.12,3.43 291.29,3.75 291.6,3.9C291.72,3.96 291.83,4 291.96,4C292.26,4 292.56,3.94 292.83,3.82C292.64,3.6 292.55,3.3 292.6,2.99C292.6,2.94 292.61,2.9 292.63,2.86C292.99,2.93 293.28,3.18 293.4,3.5C293.4,3.5 293.4,3.5 293.41,3.51C293.64,3.2 294.03,3.03 294.43,3.09ZM286.86,4.11C286.86,4.11 288.26,4.33 289.57,4.98C289.57,4.98 290.96,6.2 289.77,7.97C288.57,9.75 286.65,9.85 284.9,8.72C283.15,7.58 282.74,6.22 283.28,5.42C283.83,4.61 284.5,4.87 284.78,5.04C285.05,5.22 285.38,5.79 284.96,6.42C284.96,6.42 284.54,5.98 284.26,6.4C283.98,6.82 284.39,7.46 285.19,7.98C285.99,8.5 287.36,8.89 288.39,7.36C289.49,5.72 288.77,5.14 288.23,4.8L286.34,7.61C286.34,7.61 286.19,7.86 286.45,8.04C286.45,8.04 286.01,8.09 285.32,7.63C284.62,7.18 284.57,6.83 284.57,6.83C284.57,6.83 284.89,7.04 285.09,6.76C285.28,6.47 286.86,4.11 286.86,4.11Z"/>
    <path fill="#f7d002" d="M249.6,13.21C249.65,13.23 249.7,13.26 249.73,13.3C249.42,13.37 249.1,13.46 248.79,13.57C248.58,13.65 248.37,13.73 248.16,13.83C247.87,13.96 247.32,14.24 247.32,14.24C247.26,14.27 247.06,14.28 246.95,14.22C246.93,14.21 246.94,14.19 246.94,14.18C246.94,14.17 246.97,14.17 246.98,14.17C247.1,14.17 247.15,14.14 247.22,14.07C247.36,13.91 246.93,13.35 246.17,12.81C245.41,12.27 244.71,12.03 244.59,12.2C244.53,12.27 244.51,12.33 244.54,12.44C244.54,12.45 244.55,12.47 244.54,12.48C244.53,12.48 244.51,12.49 244.5,12.47C244.41,12.39 244.36,12.21 244.39,12.14C244.39,12.14 244.55,11.6 244.61,11.31C244.66,11.09 244.69,10.88 244.72,10.67C244.75,10.36 244.77,10.06 244.76,9.75C244.81,9.78 244.86,9.8 244.9,9.84C245.05,10 245.04,10.26 245.04,10.41L245.04,10.41C245.17,10.41 245.43,10.43 245.58,10.57C245.56,10.59 245.52,10.62 245.5,10.64C245.37,10.75 245.19,10.8 245.02,10.79C245.05,10.96 245.13,11.13 245.25,11.27C245.28,11.3 245.31,11.33 245.35,11.35C245.52,11.44 245.73,11.42 245.88,11.31C245.89,11.45 245.97,11.57 246.1,11.64C246.18,11.68 246.26,11.7 246.34,11.7C246.38,11.7 246.42,11.69 246.46,11.68C246.47,11.68 246.49,11.68 246.5,11.67C246.51,11.67 246.52,11.67 246.52,11.67L246.52,11.67C246.68,11.63 246.84,11.55 246.98,11.45C247.04,11.4 247.1,11.35 247.15,11.29C247.14,11.29 247.14,11.29 247.14,11.28C246.98,11.2 246.86,11.05 246.83,10.87C246.83,10.85 246.83,10.83 246.83,10.81C246.85,10.81 246.87,10.8 246.89,10.8C247.07,10.78 247.24,10.82 247.36,10.92C247.38,10.93 247.39,10.95 247.41,10.96C247.49,10.77 247.75,10.54 247.98,10.51C248,10.51 248.03,10.51 248.05,10.51L248.07,10.51L248.08,10.52C248.09,10.55 248.09,10.58 248.1,10.6C248.12,10.82 247.97,11.12 247.79,11.24C247.81,11.25 247.83,11.26 247.84,11.27C247.98,11.36 248.07,11.5 248.09,11.66C248.1,11.68 248.1,11.7 248.1,11.72C248.08,11.72 248.06,11.72 248.04,11.73C247.84,11.75 247.65,11.69 247.52,11.56C247.52,11.56 247.52,11.56 247.51,11.56C247.47,11.62 247.43,11.68 247.39,11.75C247.31,11.92 247.27,12.1 247.28,12.28C247.29,12.31 247.29,12.34 247.29,12.37C247.31,12.44 247.35,12.5 247.41,12.56C247.52,12.66 247.67,12.7 247.82,12.68C247.74,12.84 247.77,13.03 247.91,13.16C247.96,13.21 248.02,13.25 248.09,13.27C248.25,13.32 248.43,13.34 248.59,13.32C248.53,13.18 248.54,13.01 248.62,12.85C248.64,12.83 248.65,12.81 248.67,12.79C248.85,12.89 248.96,13.07 248.97,13.25C248.97,13.25 248.97,13.25 248.97,13.25C249.15,13.13 249.4,13.11 249.6,13.21ZM245.29,12.49C245.29,12.49 246.01,12.83 246.6,13.38C246.6,13.38 247.13,14.24 246.15,14.96C245.17,15.68 244.1,15.41 243.36,14.54C242.63,13.66 242.66,12.9 243.1,12.57C243.55,12.24 243.87,12.49 243.99,12.63C244.1,12.76 244.18,13.11 243.83,13.36C243.83,13.36 243.68,13.07 243.45,13.24C243.22,13.41 243.32,13.81 243.66,14.21C244,14.61 244.66,15.03 245.52,14.41C246.42,13.75 246.14,13.33 245.91,13.07L244.35,14.2C244.35,14.2 244.22,14.31 244.34,14.44C244.34,14.44 244.09,14.4 243.79,14.05C243.5,13.7 243.54,13.51 243.54,13.51C243.54,13.51 243.68,13.68 243.83,13.56C243.99,13.44 245.29,12.49 245.29,12.49Z"/>
    <path fill="url(#winnerShade)" d="M0,0h358v48h-358z"/>
    <path fill="#61b510" d="M71.25,28.42V31.74C71.29,31.39 71.44,31.06 71.67,30.79C71.88,30.53 72.15,30.32 72.46,30.16C72.77,30.01 73.11,29.9 73.46,29.84C73.81,29.78 74.17,29.77 74.52,29.8V35.49C74.51,35.64 74.48,35.78 74.43,35.92C74.37,36.12 74.27,36.31 74.14,36.48C74.01,36.65 73.85,36.79 73.68,36.92C73.5,37.04 73.29,37.13 73.08,37.19H79.05C78.82,37.15 78.59,37.06 78.39,36.92C78.21,36.79 78.04,36.62 77.92,36.43C77.79,36.24 77.69,36.03 77.63,35.81C77.56,35.59 77.53,35.37 77.53,35.14V29.8H77.82C78.07,29.8 78.32,29.83 78.56,29.87C78.88,29.92 79.18,30.01 79.48,30.13C79.79,30.27 80.07,30.46 80.31,30.71C80.57,30.99 80.74,31.33 80.81,31.71V28.42H71.25Z"/>
    <path fill="#61b510" d="M70.35,28.42H60.92C61.12,28.48 61.3,28.59 61.45,28.74C61.6,28.88 61.72,29.05 61.82,29.23C61.92,29.41 61.99,29.6 62.04,29.8C62.08,29.95 62.1,30.1 62.11,30.25V35.38C62.07,35.74 61.95,36.09 61.76,36.41C61.66,36.57 61.53,36.72 61.39,36.86C61.26,36.99 61.1,37.1 60.92,37.19H66.51C66.29,37.14 66.09,37.04 65.92,36.89C65.76,36.76 65.63,36.6 65.53,36.42C65.43,36.23 65.36,36.04 65.32,35.83C65.28,35.62 65.26,35.41 65.26,35.19V33.22C65.58,33.22 65.88,33.23 66.16,33.25C66.42,33.26 66.67,33.32 66.91,33.42C67.14,33.52 67.34,33.67 67.5,33.86C67.68,34.1 67.81,34.39 67.87,34.69V30.68C67.75,30.96 67.59,31.22 67.4,31.46C67.25,31.64 67.07,31.78 66.86,31.88C66.64,31.97 66.41,32.03 66.17,32.04C65.91,32.06 65.61,32.07 65.26,32.07V29.66L66.97,29.67C67.23,29.67 67.51,29.68 67.79,29.7C68.07,29.72 68.35,29.76 68.62,29.83C68.89,29.9 69.15,29.99 69.4,30.12C69.64,30.24 69.86,30.41 70.04,30.61C70.11,30.68 70.17,30.76 70.22,30.84C70.28,30.93 70.32,31.02 70.35,31.11L70.35,28.42Z"/>
    <path fill="#61b510" d="M55.3,36.74C55.15,36.87 54.99,36.97 54.82,37.05C54.66,37.12 54.55,37.17 54.51,37.19H60.94C60.83,37.17 60.73,37.13 60.64,37.08C60.55,37.03 60.46,36.98 60.37,36.92C60.14,36.76 59.94,36.58 59.76,36.37C59.59,36.18 59.44,35.96 59.31,35.74C59.18,35.5 59.06,35.25 58.96,34.99L58.5,33.65L57.87,31.85L56.65,28.42H51.31C51.48,28.46 51.64,28.52 51.79,28.6C51.93,28.67 52.05,28.77 52.16,28.88C52.29,29.01 52.38,29.17 52.42,29.35C52.46,29.51 52.46,29.67 52.42,29.83C52.39,29.99 52.34,30.15 52.28,30.3C52.13,30.68 52.01,30.98 51.93,31.21C51.91,31.27 51.88,31.34 51.85,31.4L50.89,33.8C50.84,33.94 50.76,34.15 50.65,34.42C50.54,34.69 50.42,34.97 50.29,35.26C50.16,35.55 50.02,35.83 49.87,36.08C49.76,36.29 49.62,36.47 49.45,36.63C49.33,36.73 49.19,36.83 49.06,36.92C48.92,37 48.81,37.07 48.73,37.11C48.69,37.14 48.64,37.16 48.6,37.19H53.4C53.06,37.12 52.76,36.94 52.54,36.68C52.34,36.4 52.22,36.08 52.22,35.74C52.22,35.64 52.24,35.54 52.27,35.44C52.31,35.3 52.35,35.17 52.4,35.04C52.45,34.9 52.5,34.77 52.55,34.65C52.6,34.52 52.64,34.43 52.66,34.36H55.36C55.38,34.42 55.41,34.5 55.45,34.61C55.49,34.71 55.53,34.82 55.57,34.93C55.61,35.04 55.65,35.15 55.69,35.25C55.72,35.35 55.74,35.43 55.76,35.48C55.83,35.73 55.81,35.99 55.7,36.23C55.6,36.42 55.47,36.6 55.3,36.74H55.3ZM52.96,33.32L53.92,30.47L54.92,33.32H52.96Z"/>
    <path fill="#61b510" d="M45.72,32.82C45.95,32.71 46.16,32.58 46.35,32.41L46.41,32.35C46.5,32.27 46.58,32.18 46.65,32.09C46.66,32.07 46.68,32.06 46.68,32.05C47.06,31.61 47.25,31.04 47.19,30.47H47.19C47.18,30.22 47.11,29.97 47,29.75C46.93,29.61 46.84,29.48 46.75,29.36C46.6,29.15 46.4,28.99 46.17,28.87C45.93,28.74 45.68,28.64 45.42,28.58C45.15,28.51 44.88,28.47 44.61,28.45C44.33,28.43 44.07,28.42 43.84,28.42H37.58C37.79,28.47 37.99,28.56 38.16,28.68C38.33,28.83 38.47,29 38.57,29.19C38.7,29.48 38.77,29.79 38.76,30.1C38.77,30.3 38.77,30.49 38.77,30.69V35.18C38.77,35.38 38.75,35.58 38.7,35.77C38.65,35.97 38.58,36.16 38.48,36.35C38.39,36.53 38.27,36.7 38.12,36.84C37.97,36.99 37.79,37.11 37.6,37.19H43.01C42.89,37.15 42.77,37.1 42.66,37.05C42.53,36.98 42.4,36.9 42.3,36.8C42.17,36.67 42.07,36.52 42,36.36C41.9,36.13 41.84,35.89 41.82,35.64C41.78,35.24 41.77,34.84 41.78,34.44C41.78,34.03 41.79,33.63 41.79,33.23H42.15C42.32,33.23 42.48,33.23 42.64,33.23C44.07,36.44 44.56,37.19 45.98,37.19H49.1C48.04,37.19 46.67,34.78 45.72,32.82L45.72,32.82ZM41.6,32.04V29.71C41.88,29.71 42.15,29.71 42.43,29.69C42.68,29.68 42.93,29.71 43.18,29.77C43.39,29.83 43.58,29.95 43.71,30.12C43.87,30.36 43.94,30.64 43.92,30.92C43.94,31.18 43.86,31.44 43.7,31.65C43.55,31.81 43.35,31.93 43.13,31.98C42.89,32.03 42.63,32.06 42.38,32.05C42.11,32.04 41.85,32.04 41.6,32.04"/>
    <path fill="#ffffff" d="M96.61,36.34C96.5,36.1 96.45,35.85 96.44,35.59V29.99C96.45,29.86 96.46,29.72 96.49,29.58C96.52,29.41 96.58,29.24 96.66,29.08C96.74,28.93 96.86,28.79 96.99,28.68C97.15,28.55 97.33,28.46 97.53,28.4H92.71C92.91,28.45 93.09,28.54 93.25,28.67C93.4,28.82 93.53,29 93.61,29.2C93.74,29.5 93.79,29.83 93.78,30.15V35.27C93.78,35.4 93.78,35.55 93.77,35.74C93.77,35.99 93.72,36.25 93.6,36.48C93.51,36.65 93.39,36.8 93.24,36.92C93.22,36.94 93.19,36.96 93.16,36.98C91.98,36.52 90.75,35.38 89.84,34.01C89.3,33.2 88.7,32.13 88.19,31.2C88.67,30.63 89.12,30.09 89.49,29.69C90.21,29.02 91.1,28.56 92.08,28.37H88.15C88.25,28.54 88.29,28.75 88.27,28.94C88.24,29.14 88.14,29.33 87.99,29.47L85.39,32.51V30.28C85.4,30.17 85.4,30.07 85.41,29.95C85.44,29.71 85.49,29.47 85.57,29.23C85.64,29.03 85.75,28.84 85.89,28.67C86.03,28.52 86.22,28.41 86.42,28.37H81.38C81.61,28.4 81.83,28.49 82,28.64C82.16,28.78 82.28,28.95 82.37,29.14C82.46,29.34 82.52,29.55 82.55,29.76C82.57,29.86 82.58,29.95 82.59,30.04L82.6,30.39V34.94L82.61,34.94V35.18L82.6,35.53C82.59,35.62 82.58,35.72 82.56,35.81C82.53,36.03 82.47,36.24 82.38,36.44C82.29,36.62 82.17,36.79 82.01,36.93C81.84,37.08 81.62,37.18 81.39,37.2H86.44C86.23,37.16 86.04,37.06 85.91,36.9C85.76,36.74 85.65,36.55 85.58,36.34C85.5,36.11 85.45,35.86 85.42,35.62C85.39,35.39 85.38,35.16 85.38,34.93V34.7C85.58,34.44 85.88,34.05 86.25,33.59C86.45,33.92 86.66,34.25 86.88,34.59C87.92,36.18 88.75,37.2 90.08,37.2C91.4,37.2 97.51,37.2 97.51,37.2C97.31,37.13 97.13,37.02 96.97,36.88C96.82,36.72 96.69,36.54 96.61,36.34Z"/>
    <path fill="#ffffff" d="M108.74,30.24C108.74,30.1 108.75,29.95 108.76,29.79C108.78,29.63 108.81,29.47 108.85,29.32C108.89,29.17 108.96,29.02 109.04,28.89C109.12,28.76 109.23,28.64 109.35,28.55C109.49,28.45 109.64,28.38 109.81,28.36H105.62C105.85,28.37 106.07,28.45 106.25,28.59C106.42,28.73 106.55,28.89 106.64,29.08C106.74,29.28 106.8,29.5 106.83,29.71C106.87,29.93 106.89,30.14 106.89,30.35V34.3L102.96,28.36H98.2C98.43,28.36 98.65,28.44 98.83,28.59C98.99,28.72 99.12,28.89 99.19,29.09C99.28,29.29 99.34,29.51 99.37,29.73C99.4,29.93 99.41,30.14 99.41,30.35C99.41,30.44 99.41,30.57 99.42,30.74V34.92C99.42,35.1 99.41,35.29 99.4,35.47C99.39,35.61 99.38,35.76 99.37,35.9C99.35,36.05 99.32,36.19 99.28,36.33C99.23,36.46 99.16,36.59 99.08,36.71C98.99,36.83 98.88,36.93 98.75,37.01C98.72,37.02 98.68,37.04 98.65,37.06C98.6,37.07 98.55,37.09 98.5,37.1C98.45,37.12 98.41,37.13 98.37,37.15C98.35,37.16 98.33,37.17 98.3,37.17H102.41C102.29,37.11 102.19,37.06 102.11,37.01C102.03,36.96 101.95,36.91 101.88,36.85C101.8,36.79 101.74,36.73 101.68,36.66C101.5,36.45 101.38,36.2 101.33,35.94C101.28,35.67 101.25,35.4 101.25,35.13V31.25L105.12,37.17H109.81C109.64,37.15 109.49,37.08 109.35,36.98C109.23,36.89 109.12,36.77 109.04,36.64C108.96,36.51 108.9,36.36 108.85,36.21C108.81,36.06 108.78,35.9 108.76,35.74C108.75,35.58 108.74,35.43 108.74,35.29V30.24Z"/>
    <path fill="#ffffff" d="M129.03,33.67C128.97,33.51 128.9,33.36 128.81,33.21C128.66,32.96 128.46,32.74 128.21,32.58L128.21,32.57C128.18,32.55 128.15,32.53 128.12,32.51L128.11,32.51C127.98,32.42 127.84,32.34 127.69,32.26C126.67,31.73 125.61,31.73 124.76,31.54C124.62,31.51 124.49,31.47 124.36,31.43C124.32,31.41 124.27,31.39 124.22,31.37C124.04,31.29 123.87,31.19 123.72,31.07C123.59,30.96 123.5,30.81 123.45,30.65C123.43,30.58 123.42,30.51 123.43,30.44C123.43,30.37 123.46,30.31 123.49,30.25C123.61,30.08 123.75,29.94 123.93,29.84C124.11,29.73 124.31,29.65 124.52,29.59C124.75,29.54 124.98,29.51 125.22,29.51C125.46,29.52 125.7,29.55 125.93,29.61C126.2,29.68 126.46,29.76 126.71,29.87C126.9,29.94 127.07,30.04 127.22,30.16C127.3,30.22 127.37,30.29 127.44,30.35C127.51,30.42 127.59,30.5 127.67,30.57C127.75,30.65 127.84,30.74 127.94,30.83C128.04,30.93 128.16,31.04 128.31,31.17V28.09C128.31,28.09 128.06,28.68 127.09,28.68C126.81,28.67 126.54,28.65 126.27,28.61C126,28.57 125.71,28.53 125.43,28.48C125.11,28.43 124.8,28.41 124.48,28.42C124.04,28.42 123.6,28.48 123.18,28.59C122.78,28.7 122.4,28.87 122.06,29.1C121.71,29.34 121.43,29.66 121.24,30.02C121.06,30.39 120.96,30.8 120.98,31.21C120.96,31.58 121.05,31.95 121.24,32.27C121.37,32.49 121.54,32.68 121.73,32.85L121.74,32.85C121.74,32.86 121.75,32.87 121.75,32.87C121.78,32.89 121.8,32.91 121.82,32.92C121.86,32.95 121.89,32.98 121.93,33.01C122.63,33.53 123.63,33.78 124.79,34.04C124.81,34.04 124.83,34.05 124.86,34.05L124.86,34.05C124.98,34.08 125.1,34.11 125.22,34.14C125.44,34.2 125.65,34.28 125.86,34.38C126.02,34.46 126.17,34.58 126.28,34.71C126.33,34.77 126.37,34.83 126.38,34.9C126.4,34.97 126.39,35.05 126.37,35.12C126.34,35.24 126.29,35.35 126.22,35.45C126.14,35.54 126.04,35.63 125.93,35.69C125.7,35.8 125.45,35.87 125.19,35.87C124.91,35.89 124.63,35.87 124.36,35.81C124.11,35.76 123.86,35.7 123.63,35.62C123.15,35.45 122.7,35.23 122.28,34.97C122,34.78 121.74,34.58 121.49,34.36C121.22,34.12 120.99,33.85 120.79,33.56V37.24C121.21,37.01 121.67,36.87 122.14,36.85L122.15,36.85C122.3,36.83 122.46,36.81 122.61,36.81C122.85,36.8 123.09,36.82 123.32,36.86C123.56,36.9 123.8,36.95 124.03,37.01C124.28,37.08 124.53,37.12 124.79,37.15C125.05,37.18 125.3,37.19 125.56,37.19C126,37.19 126.43,37.14 126.86,37.05C127.27,36.96 127.67,36.8 128.03,36.58C128.37,36.35 128.66,36.06 128.88,35.71C129.1,35.31 129.21,34.86 129.19,34.4C129.16,34.15 129.11,33.91 129.03,33.67"/>
    <path fill="#ffffff" d="M115.94,32.83C116.08,32.96 116.18,33.12 116.23,33.31C116.28,33.51 116.3,33.71 116.29,33.92C116.29,34.14 116.29,34.37 116.29,34.6C116.29,34.71 116.3,34.85 116.3,35C116.31,35.15 116.29,35.3 116.24,35.44C116.19,35.58 116.08,35.71 115.95,35.79C115.75,35.9 115.53,35.95 115.3,35.93C115.01,35.95 114.72,35.87 114.48,35.72C114.27,35.58 114.1,35.39 113.98,35.18C113.86,34.96 113.77,34.72 113.72,34.48V34.48C113.46,33.38 113.45,32.24 113.7,31.13C113.75,30.89 113.84,30.65 113.97,30.44C114.1,30.23 114.27,30.05 114.48,29.91C114.71,29.77 114.98,29.69 115.25,29.68C115.39,29.68 115.53,29.69 115.67,29.71C115.82,29.74 115.95,29.76 116.08,29.79C116.74,29.93 117.37,30.17 117.94,30.52C118.55,30.83 119.03,31.33 119.32,31.93V28.05C119.26,28.23 119.16,28.39 119.03,28.53C118.9,28.67 118.74,28.78 118.56,28.86C118.45,28.9 118.34,28.92 118.22,28.94C118.2,28.94 118.17,28.95 118.14,28.95C118.13,28.95 118.11,28.95 118.09,28.95C117.87,28.95 117.65,28.93 117.44,28.9C117.2,28.87 116.97,28.81 116.74,28.74C116.51,28.66 116.29,28.6 116.08,28.55C115.88,28.5 115.66,28.47 115.45,28.44C115.23,28.42 115.01,28.41 114.79,28.41C114.34,28.41 113.89,28.46 113.46,28.56C113.04,28.65 112.64,28.8 112.27,28.99C111.9,29.19 111.56,29.44 111.27,29.73C111.04,29.97 110.84,30.23 110.68,30.52L110.67,30.53C110.17,31.68 110.03,32.94 110.26,34.16C110.33,34.41 110.41,34.65 110.51,34.88C110.56,35 110.62,35.11 110.68,35.22C110.91,35.65 111.22,36.02 111.6,36.33C111.99,36.64 112.43,36.87 112.91,37.01C113.45,37.17 114.02,37.24 114.58,37.22C114.84,37.21 115.09,37.17 115.34,37.11C115.6,37.05 115.86,36.97 116.12,36.9C116.38,36.82 116.64,36.74 116.91,36.67C117.17,36.6 117.43,36.56 117.69,36.55C117.95,36.54 118.2,36.57 118.44,36.63C118.71,36.71 118.95,36.84 119.15,37.02V34.44C119.15,34.25 119.17,34.06 119.2,33.87C119.22,33.68 119.28,33.49 119.36,33.31C119.43,33.14 119.54,32.98 119.68,32.85C119.83,32.71 120.01,32.6 120.2,32.55H115.25C115.5,32.57 115.75,32.67 115.94,32.82"/>
    <path fill="#f5f5f5" d="M26.91,20.71C26.91,20.71 26.94,20.79 26.99,20.93C26.98,20.85 26.96,20.78 26.94,20.7C26.93,20.7 26.92,20.71 26.91,20.71"/>
    <path fill="#f5f5f5" d="M26.91,20.71C26.91,20.71 26.94,20.79 26.99,20.93C26.98,20.85 26.96,20.78 26.94,20.7C26.93,20.7 26.92,20.71 26.91,20.71"/>
    <path fill="#f5f5f5" d="M26.91,20.71C26.91,20.71 26.94,20.79 26.99,20.93C26.98,20.85 26.96,20.78 26.94,20.7C26.93,20.7 26.92,20.71 26.91,20.71"/>
    <path fill="#f7760d" d="M39.35,18.22C38.95,18.4 38.61,18.68 38.36,19.03C38.11,19.38 37.97,19.79 37.94,20.21L37.94,20.21C37.61,19.99 37.23,19.85 36.84,19.8C36.44,19.76 36.04,19.81 35.66,19.95C35.69,20.05 35.73,20.14 35.77,20.23C35.92,20.53 36.12,20.8 36.38,21.02C36.63,21.23 36.94,21.4 37.26,21.49C36.9,22.03 36.42,22.5 35.86,22.85C35.62,23 35.34,23.09 35.05,23.11C34.68,23.15 34.31,23.08 33.99,22.92C33.66,22.76 33.39,22.5 33.22,22.19C33,22.57 32.64,22.86 32.21,23C31.78,23.14 31.32,23.13 30.9,22.96C30.79,22.89 30.68,22.83 30.58,22.76C29.69,22.16 29.04,21.28 28.74,20.28C28.75,20.28 28.77,20.27 28.78,20.27C29.15,20.23 29.5,20.11 29.82,19.92C30.13,19.72 30.39,19.46 30.58,19.15C30.62,19.09 30.66,19.02 30.69,18.95C30.39,18.73 30.05,18.59 29.68,18.53C29.31,18.46 28.93,18.49 28.57,18.59C28.5,18.61 28.43,18.63 28.36,18.66C28.33,18.17 28.19,17.7 27.95,17.27C27.71,16.84 27.38,16.46 26.97,16.17C26.87,16.12 26.77,16.07 26.66,16.03L26.59,16L26.54,16.06C26.48,16.13 26.43,16.21 26.38,16.3C25.92,17.05 26.04,18.4 26.47,19.1C26.4,19.11 26.32,19.13 26.24,19.14C25.92,19.21 25.61,19.34 25.34,19.53C25.07,19.72 24.85,19.96 24.68,20.23C24.64,20.3 24.6,20.37 24.57,20.44C24.63,20.49 24.7,20.53 24.77,20.57C25.09,20.75 25.45,20.86 25.82,20.88C26.19,20.91 26.56,20.85 26.91,20.71C26.92,20.71 26.93,20.7 26.94,20.7C27.17,21.64 27.08,22.62 26.68,23.5L26.68,23.49C26.67,23.51 26.66,23.53 26.66,23.56C26.63,23.61 26.6,23.67 26.57,23.73C26.5,23.86 26.43,23.99 26.34,24.12C26.06,24.47 25.66,24.69 25.21,24.77C24.76,24.84 24.3,24.75 23.92,24.51C23.92,24.87 23.81,25.21 23.6,25.51C23.39,25.8 23.1,26.02 22.76,26.15C22.6,26.21 22.42,26.25 22.25,26.27C21.49,26.26 20.75,26.07 20.08,25.72C20.32,25.49 20.5,25.2 20.62,24.89C20.74,24.58 20.78,24.26 20.76,23.93C20.75,23.82 20.73,23.64 20.71,23.54C19.88,23.64 19.19,24.35 18.85,24.74H18.85C18.39,24.35 17.54,23.67 16.62,23.74C16.4,23.77 16.2,23.83 16,23.91C17.03,24.66 18.02,25.47 18.94,26.33C19.6,26.94 20.22,27.58 20.82,28.23C21.65,29.15 23.07,31 23.07,31C23.44,31.33 23.93,31.51 24.43,31.49C24.47,31.49 24.49,31.47 24.51,31.45C24.54,31.43 24.55,31.4 24.55,31.37C24.56,31.32 24.47,31.29 24.42,31.27C24.26,31.22 24.11,31.12 23.99,30.99C23.87,30.86 23.78,30.71 23.74,30.54C23.47,29.73 25.97,28.28 29.63,27.38C33.29,26.49 36.23,26.6 36.4,27.43C36.45,27.59 36.45,27.77 36.41,27.94C36.37,28.11 36.28,28.26 36.16,28.39C36.14,28.43 36.07,28.5 36.1,28.53C36.12,28.56 36.15,28.58 36.18,28.59C36.21,28.6 36.24,28.6 36.27,28.59C36.72,28.37 37.06,27.99 37.22,27.53C37.22,27.53 37.61,25.23 37.88,24.05C38.07,23.19 38.31,22.35 38.58,21.52C38.96,20.34 39.42,19.18 39.96,18.05C39.75,18.08 39.54,18.14 39.35,18.22"/>
    <path fill="#61b510" d="M26.43,29.17C28.4,28.35 30.48,27.8 32.61,27.53C32.61,27.53 36.77,27.92 36.77,32.62C36.77,37.32 33.3,40 28.58,40C23.86,40 21.37,37.99 21.37,35.86C21.37,33.72 22.96,33.38 23.7,33.38C24.3,33.42 24.85,33.69 25.24,34.13C25.63,34.56 25.82,35.13 25.78,35.7C25.78,35.7 24.45,35.38 24.45,36.5C24.45,37.61 26.02,38.3 28.19,38.3C30.35,38.3 33.4,37.39 33.4,33.32C33.4,28.98 31.32,28.79 29.87,28.79V36.23C29.88,36.41 29.97,36.59 30.11,36.71C30.25,36.83 30.44,36.89 30.63,36.89C30.63,36.89 29.87,37.51 27.98,37.51C26.09,37.51 25.56,36.92 25.56,36.92C25.56,36.92 26.45,36.93 26.45,36.17C26.45,35.41 26.43,29.17 26.43,29.17"/>
    <path fill="#ffffff" d="M214.66,30.83V29.73H220.46V30.83H218.21V37H216.91V30.83H214.66ZM222.58,37V29.73H223.9V32.81H227.27V29.73H228.59V37H227.27V33.91H223.9V37H222.58ZM231.02,37V29.73H235.75V30.83H232.34V32.81H235.51V33.91H232.34V35.9H235.78V37H231.02ZM247.8,32.18H246.47C246.43,31.96 246.37,31.77 246.26,31.6C246.16,31.43 246.04,31.29 245.88,31.17C245.73,31.05 245.56,30.96 245.37,30.9C245.17,30.84 244.97,30.81 244.74,30.81C244.35,30.81 244,30.91 243.69,31.11C243.39,31.31 243.15,31.59 242.98,31.98C242.8,32.35 242.72,32.82 242.72,33.36C242.72,33.92 242.8,34.39 242.98,34.77C243.15,35.15 243.39,35.44 243.69,35.63C244,35.82 244.35,35.92 244.74,35.92C244.96,35.92 245.16,35.89 245.35,35.83C245.54,35.77 245.71,35.69 245.87,35.57C246.02,35.46 246.15,35.32 246.25,35.15C246.36,34.99 246.43,34.8 246.47,34.59L247.8,34.59C247.75,34.94 247.64,35.26 247.48,35.57C247.31,35.87 247.1,36.14 246.84,36.37C246.57,36.6 246.26,36.78 245.9,36.91C245.55,37.04 245.15,37.1 244.72,37.1C244.08,37.1 243.51,36.95 243.01,36.66C242.51,36.36 242.11,35.93 241.82,35.37C241.54,34.81 241.39,34.14 241.39,33.36C241.39,32.58 241.54,31.91 241.83,31.35C242.12,30.8 242.52,30.37 243.02,30.07C243.52,29.78 244.09,29.63 244.72,29.63C245.13,29.63 245.5,29.68 245.85,29.8C246.2,29.91 246.51,30.08 246.78,30.3C247.05,30.52 247.28,30.78 247.45,31.1C247.63,31.42 247.75,31.78 247.8,32.18ZM250.01,37V29.73H252.74C253.29,29.73 253.76,29.82 254.14,30.02C254.52,30.21 254.81,30.48 255,30.84C255.2,31.18 255.3,31.59 255.3,32.05C255.3,32.52 255.2,32.92 255,33.27C254.8,33.61 254.51,33.87 254.13,34.06C253.75,34.24 253.28,34.34 252.72,34.34H250.77V33.24H252.54C252.87,33.24 253.13,33.2 253.34,33.11C253.55,33.02 253.7,32.88 253.8,32.71C253.9,32.53 253.96,32.31 253.96,32.05C253.96,31.8 253.9,31.58 253.8,31.39C253.7,31.21 253.55,31.07 253.34,30.97C253.13,30.88 252.86,30.83 252.53,30.83H251.32V37H250.01ZM253.76,33.7L255.57,37H254.1L252.33,33.7H253.76ZM264.01,33.36C264.01,34.15 263.86,34.82 263.57,35.38C263.28,35.93 262.88,36.36 262.38,36.66C261.87,36.95 261.3,37.1 260.67,37.1C260.03,37.1 259.46,36.95 258.96,36.66C258.45,36.36 258.06,35.93 257.76,35.37C257.47,34.81 257.33,34.14 257.33,33.36C257.33,32.58 257.47,31.91 257.76,31.35C258.06,30.8 258.45,30.37 258.96,30.07C259.46,29.78 260.03,29.63 260.67,29.63C261.3,29.63 261.87,29.78 262.38,30.07C262.88,30.37 263.28,30.8 263.57,31.35C263.86,31.91 264.01,32.58 264.01,33.36ZM262.68,33.36C262.68,32.81 262.6,32.35 262.43,31.97C262.26,31.59 262.02,31.3 261.72,31.11C261.41,30.91 261.06,30.81 260.67,30.81C260.27,30.81 259.92,30.91 259.62,31.11C259.32,31.3 259.08,31.59 258.91,31.97C258.74,32.35 258.65,32.81 258.65,33.36C258.65,33.92 258.74,34.38 258.91,34.76C259.08,35.14 259.32,35.43 259.62,35.63C259.92,35.82 260.27,35.92 260.67,35.92C261.06,35.92 261.41,35.82 261.72,35.63C262.02,35.43 262.26,35.14 262.43,34.76C262.6,34.38 262.68,33.92 262.68,33.36ZM267.6,37L265.55,29.73H266.96L268.27,35.07H268.34L269.74,29.73H271.03L272.43,35.08H272.5L273.81,29.73H275.23L273.17,37H271.87L270.42,31.9H270.36L268.9,37H267.6ZM283.11,29.73V37H281.94L278.52,32.05H278.46V37H277.14V29.73H278.32L281.74,34.68H281.8V29.73H283.11ZM290.35,29.73V37H289.03V29.73H290.35ZM296.73,31.73C296.69,31.42 296.55,31.17 296.31,31C296.06,30.83 295.75,30.74 295.36,30.74C295.08,30.74 294.85,30.78 294.65,30.87C294.45,30.95 294.3,31.06 294.2,31.2C294.1,31.35 294.04,31.51 294.04,31.69C294.04,31.84 294.07,31.97 294.14,32.09C294.21,32.2 294.31,32.29 294.43,32.37C294.55,32.45 294.68,32.51 294.83,32.56C294.98,32.61 295.13,32.66 295.27,32.69L295.96,32.86C296.23,32.93 296.49,33.01 296.75,33.12C297,33.23 297.23,33.37 297.43,33.53C297.64,33.7 297.8,33.9 297.92,34.13C298.04,34.37 298.1,34.64 298.1,34.96C298.1,35.38 297.99,35.76 297.77,36.08C297.55,36.41 297.23,36.66 296.82,36.84C296.41,37.02 295.92,37.11 295.33,37.11C294.77,37.11 294.28,37.02 293.86,36.85C293.45,36.67 293.12,36.42 292.89,36.08C292.66,35.74 292.53,35.33 292.51,34.85H293.81C293.83,35.1 293.9,35.32 294.04,35.48C294.18,35.65 294.36,35.78 294.58,35.86C294.8,35.94 295.05,35.98 295.33,35.98C295.61,35.98 295.86,35.94 296.08,35.86C296.3,35.77 296.47,35.65 296.59,35.49C296.71,35.34 296.77,35.16 296.78,34.95C296.77,34.76 296.72,34.6 296.61,34.48C296.5,34.35 296.35,34.25 296.15,34.17C295.96,34.08 295.73,34.01 295.47,33.94L294.64,33.73C294.04,33.57 293.57,33.34 293.22,33.03C292.88,32.71 292.7,32.29 292.7,31.77C292.7,31.34 292.82,30.97 293.05,30.65C293.29,30.33 293.61,30.08 294.01,29.9C294.41,29.72 294.86,29.63 295.37,29.63C295.89,29.63 296.34,29.72 296.73,29.9C297.12,30.08 297.43,30.32 297.65,30.64C297.87,30.95 297.99,31.32 297.99,31.73H296.73Z"/>
    <path fill="#53d337" d="M303.25,29.73H304.74L306.52,32.94H306.59L308.37,29.73H309.86L307.21,34.29V37H305.9V34.29L303.25,29.73ZM317.88,33.36C317.88,34.15 317.73,34.82 317.44,35.38C317.15,35.93 316.75,36.36 316.24,36.66C315.74,36.95 315.17,37.1 314.54,37.1C313.9,37.1 313.33,36.95 312.83,36.66C312.32,36.36 311.93,35.93 311.63,35.37C311.34,34.81 311.2,34.14 311.2,33.36C311.2,32.58 311.34,31.91 311.63,31.35C311.93,30.8 312.32,30.37 312.83,30.07C313.33,29.78 313.9,29.63 314.54,29.63C315.17,29.63 315.74,29.78 316.24,30.07C316.75,30.37 317.15,30.8 317.44,31.35C317.73,31.91 317.88,32.58 317.88,33.36ZM316.55,33.36C316.55,32.81 316.47,32.35 316.3,31.97C316.13,31.59 315.89,31.3 315.58,31.11C315.28,30.91 314.93,30.81 314.54,30.81C314.14,30.81 313.79,30.91 313.49,31.11C313.19,31.3 312.95,31.59 312.78,31.97C312.61,32.35 312.52,32.81 312.52,33.36C312.52,33.92 312.61,34.38 312.78,34.76C312.95,35.14 313.19,35.43 313.49,35.63C313.79,35.82 314.14,35.92 314.54,35.92C314.93,35.92 315.28,35.82 315.58,35.63C315.89,35.43 316.13,35.14 316.3,34.76C316.47,34.38 316.55,33.92 316.55,33.36ZM324.71,29.73H326.03V34.48C326.03,35 325.9,35.46 325.66,35.85C325.41,36.25 325.07,36.56 324.63,36.78C324.18,37 323.67,37.11 323.08,37.11C322.48,37.11 321.96,37 321.52,36.78C321.08,36.56 320.73,36.25 320.49,35.85C320.25,35.46 320.13,35 320.13,34.48V29.73H321.44V34.37C321.44,34.67 321.51,34.94 321.64,35.18C321.78,35.42 321.96,35.6 322.21,35.74C322.45,35.87 322.74,35.93 323.08,35.93C323.41,35.93 323.7,35.87 323.94,35.74C324.19,35.6 324.38,35.42 324.51,35.18C324.64,34.94 324.71,34.67 324.71,34.37V29.73ZM328.46,37V29.73H331.19C331.74,29.73 332.21,29.82 332.59,30.02C332.97,30.21 333.26,30.48 333.45,30.84C333.65,31.18 333.75,31.59 333.75,32.05C333.75,32.52 333.65,32.92 333.45,33.27C333.26,33.61 332.96,33.87 332.58,34.06C332.2,34.24 331.73,34.34 331.17,34.34H329.23V33.24H330.99C331.32,33.24 331.58,33.2 331.79,33.11C332,33.02 332.15,32.88 332.26,32.71C332.36,32.53 332.41,32.31 332.41,32.05C332.41,31.8 332.36,31.58 332.26,31.39C332.15,31.21 332,31.07 331.79,30.97C331.58,30.88 331.31,30.83 330.98,30.83H329.78V37H328.46ZM332.22,33.7L334.02,37H332.55L330.78,33.7H332.22ZM339.92,31.73C339.88,31.42 339.74,31.17 339.5,31C339.25,30.83 338.93,30.74 338.54,30.74C338.27,30.74 338.03,30.78 337.84,30.87C337.64,30.95 337.49,31.06 337.39,31.2C337.28,31.35 337.23,31.51 337.23,31.69C337.23,31.84 337.26,31.97 337.33,32.09C337.4,32.2 337.5,32.29 337.62,32.37C337.74,32.45 337.87,32.51 338.02,32.56C338.17,32.61 338.31,32.66 338.46,32.69L339.14,32.86C339.42,32.93 339.68,33.01 339.94,33.12C340.19,33.23 340.42,33.37 340.62,33.53C340.83,33.7 340.99,33.9 341.1,34.13C341.22,34.37 341.28,34.64 341.28,34.96C341.28,35.38 341.17,35.76 340.95,36.08C340.74,36.41 340.42,36.66 340.01,36.84C339.6,37.02 339.11,37.11 338.52,37.11C337.96,37.11 337.47,37.02 337.05,36.85C336.64,36.67 336.31,36.42 336.08,36.08C335.84,35.74 335.72,35.33 335.7,34.85H337C337.02,35.1 337.09,35.32 337.23,35.48C337.37,35.65 337.55,35.78 337.77,35.86C337.99,35.94 338.24,35.98 338.51,35.98C338.8,35.98 339.05,35.94 339.27,35.86C339.48,35.77 339.65,35.65 339.78,35.49C339.9,35.34 339.96,35.16 339.96,34.95C339.96,34.76 339.91,34.6 339.8,34.48C339.69,34.35 339.54,34.25 339.34,34.17C339.14,34.08 338.92,34.01 338.66,33.94L337.83,33.73C337.23,33.57 336.76,33.34 336.41,33.03C336.06,32.71 335.89,32.29 335.89,31.77C335.89,31.34 336.01,30.97 336.24,30.65C336.47,30.33 336.79,30.08 337.2,29.9C337.6,29.72 338.05,29.63 338.56,29.63C339.08,29.63 339.53,29.72 339.92,29.9C340.31,30.08 340.62,30.32 340.84,30.64C341.06,30.95 341.18,31.32 341.18,31.73H339.92Z"/>
  </g>
</svg>
