<svg xmlns="http://www.w3.org/2000/svg" viewBox="0 0 23 24" width="23" height="24">
  <path fill="currentColor" d="M22.379,2.221C22.569,2.134 22.764,2.084 22.961,2.051C22.449,3.176 22.008,4.334 21.638,5.519C21.379,6.348 21.155,7.192 20.969,8.046C20.71,9.234 20.334,11.525 20.334,11.525C20.301,11.812 19.848,12.406 19.423,12.589C19.348,12.622 19.292,12.568 19.267,12.535C19.238,12.495 19.296,12.428 19.325,12.391C19.592,12.041 19.619,11.782 19.55,11.427C19.387,10.595 16.571,10.487 13.064,11.382C9.558,12.276 7.159,13.732 7.415,14.538C7.524,14.882 7.671,15.096 8.073,15.274C8.116,15.292 8.199,15.321 8.193,15.37C8.187,15.412 8.163,15.485 8.083,15.492C7.622,15.538 6.941,15.234 6.775,14.999C6.775,14.999 5.414,13.15 4.618,12.235C4.045,11.577 3.445,10.935 2.821,10.333C1.929,9.475 0.986,8.652 0,7.914C0.188,7.847 0.383,7.752 0.591,7.736C1.477,7.668 2.286,8.353 2.727,8.737H2.729C3.061,8.353 3.72,7.639 4.516,7.538C4.536,7.636 4.552,7.825 4.559,7.927C4.611,8.618 4.357,9.261 3.912,9.721C4.542,10.063 5.253,10.255 5.989,10.267C6.153,10.253 6.317,10.216 6.477,10.152C7.168,9.879 7.59,9.216 7.591,8.512C8.05,8.805 8.635,8.882 9.18,8.667C9.478,8.55 9.726,8.358 9.912,8.123C9.992,7.994 10.066,7.862 10.133,7.726C10.16,7.669 10.187,7.612 10.212,7.555C10.417,6.921 10.619,6.295 10.601,5.589C10.593,5.294 10.556,4.995 10.489,4.697C10.476,4.702 10.464,4.708 10.452,4.713C9.807,4.98 9.05,4.951 8.402,4.568C8.335,4.529 8.27,4.486 8.209,4.441C8.24,4.371 8.276,4.302 8.316,4.234C8.655,3.652 9.208,3.274 9.817,3.141C9.889,3.126 9.963,3.113 10.036,3.105C9.625,2.402 9.504,1.05 9.944,0.298C9.993,0.213 10.047,0.134 10.105,0.058L10.15,0L10.216,0.027C10.303,0.065 10.427,0.124 10.51,0.174C11.256,0.621 11.864,1.846 11.841,2.661C11.909,2.634 11.979,2.609 12.051,2.587C12.647,2.41 13.313,2.473 13.89,2.818C13.957,2.858 14.021,2.901 14.082,2.947C14.05,3.016 14.014,3.085 13.974,3.152C13.59,3.802 12.94,4.193 12.247,4.272C12.234,4.274 12.22,4.275 12.208,4.276C12.291,4.57 12.402,4.85 12.537,5.112C12.88,5.782 13.376,6.342 13.97,6.758C14.071,6.829 14.175,6.894 14.282,6.956C14.554,7.072 14.859,7.121 15.173,7.083C15.754,7.014 16.234,6.667 16.5,6.191C16.832,6.809 17.516,7.193 18.253,7.105C18.549,7.069 18.805,7.006 19.034,6.845C19.577,6.491 20.033,6.027 20.378,5.491C19.767,5.303 19.236,4.863 18.95,4.233C18.908,4.139 18.874,4.044 18.844,3.949C19.591,3.651 20.409,3.772 21.028,4.211L21.029,4.211C21.076,3.376 21.569,2.591 22.379,2.221ZM9.99,13.167C9.99,13.167 12.777,11.901 15.919,11.526C15.919,11.526 19.901,12.104 19.901,16.803C19.901,21.502 16.577,24 12.052,24C7.528,24 5.141,21.995 5.141,19.858C5.141,17.722 6.669,17.381 7.379,17.381C8.09,17.381 9.374,18.027 9.374,19.701C9.374,19.701 8.095,19.385 8.095,20.497C8.095,21.609 9.607,22.302 11.679,22.302C13.752,22.302 16.677,21.389 16.677,17.321C16.677,12.98 14.68,12.786 13.292,12.786V20.232C13.292,20.232 13.328,20.887 14.017,20.887C14.017,20.887 13.288,21.506 11.48,21.506C9.673,21.506 9.159,20.923 9.159,20.923C9.159,20.923 10.014,20.926 10.014,20.168C10.014,19.409 9.99,13.167 9.99,13.167Z"/>
</svg>
