<svg xmlns="http://www.w3.org/2000/svg" viewBox="0 0 24 24" width="24" height="24">
  <path fill="currentColor" d="M20.566,3.851C20.724,3.778 20.887,3.737 21.051,3.709C20.625,4.647 20.257,5.612 19.948,6.599C19.733,7.29 19.546,7.993 19.392,8.705C19.175,9.695 18.862,11.604 18.862,11.604C18.834,11.844 18.457,12.339 18.103,12.491C18.041,12.518 17.994,12.473 17.973,12.446C17.949,12.413 17.997,12.357 18.021,12.326C18.244,12.035 18.266,11.818 18.208,11.523C18.073,10.829 15.726,10.739 12.804,11.485C9.882,12.23 7.883,13.443 8.096,14.115C8.187,14.402 8.31,14.58 8.644,14.728C8.681,14.744 8.75,14.768 8.744,14.808C8.74,14.843 8.72,14.904 8.653,14.91C8.269,14.948 7.701,14.695 7.562,14.499C7.562,14.499 6.428,12.958 5.765,12.196C5.288,11.648 4.788,11.112 4.268,10.611C3.525,9.896 2.739,9.21 1.917,8.595C2.074,8.54 2.236,8.46 2.41,8.447C3.148,8.39 3.822,8.961 4.19,9.281H4.191C4.468,8.961 5.017,8.366 5.681,8.281C5.697,8.363 5.71,8.52 5.716,8.605C5.76,9.181 5.548,9.717 5.177,10.101C5.702,10.385 6.294,10.546 6.908,10.556C7.044,10.544 7.181,10.513 7.315,10.46C7.89,10.233 8.242,9.68 8.243,9.094C8.625,9.338 9.113,9.402 9.567,9.223C9.816,9.125 10.022,8.965 10.177,8.769C10.244,8.662 10.306,8.552 10.361,8.438C10.384,8.391 10.406,8.344 10.427,8.296C10.598,7.768 10.766,7.245 10.751,6.658C10.744,6.412 10.714,6.163 10.658,5.914C10.647,5.918 10.637,5.923 10.627,5.927C10.09,6.15 9.459,6.126 8.919,5.807C8.862,5.774 8.809,5.738 8.758,5.701C8.784,5.642 8.814,5.585 8.847,5.528C9.13,5.044 9.591,4.729 10.098,4.618C10.158,4.605 10.219,4.595 10.281,4.587C9.938,4.002 9.837,2.875 10.203,2.248C10.244,2.177 10.289,2.111 10.338,2.048L10.375,2L10.43,2.022C10.503,2.054 10.606,2.103 10.675,2.145C11.297,2.517 11.804,3.539 11.784,4.218C11.842,4.195 11.9,4.174 11.959,4.156C12.456,4.008 13.011,4.06 13.492,4.348C13.548,4.382 13.601,4.418 13.652,4.456C13.625,4.514 13.595,4.571 13.562,4.627C13.242,5.168 12.7,5.495 12.123,5.56C12.112,5.561 12.101,5.562 12.09,5.563C12.16,5.808 12.252,6.042 12.364,6.26C12.65,6.818 13.064,7.285 13.559,7.632C13.643,7.691 13.73,7.745 13.818,7.796C14.045,7.894 14.299,7.934 14.561,7.903C15.045,7.845 15.445,7.556 15.667,7.159C15.944,7.674 16.514,7.994 17.128,7.921C17.375,7.891 17.588,7.838 17.778,7.705C18.231,7.409 18.611,7.023 18.898,6.576C18.389,6.42 17.947,6.053 17.709,5.527C17.674,5.449 17.645,5.37 17.621,5.291C18.243,5.042 18.924,5.143 19.44,5.509L19.441,5.509C19.48,4.813 19.892,4.159 20.566,3.851ZM10.242,12.973C10.242,12.973 12.565,11.917 15.183,11.605C15.183,11.605 18.501,12.087 18.501,16.002C18.501,19.919 15.731,22 11.96,22C8.19,22 6.202,20.329 6.202,18.549C6.202,16.768 7.474,16.485 8.066,16.485C8.658,16.485 9.728,17.022 9.728,18.417C9.728,18.417 8.663,18.154 8.663,19.081C8.663,20.008 9.923,20.585 11.649,20.585C13.377,20.585 15.815,19.824 15.815,16.434C15.815,12.817 14.15,12.655 12.993,12.655V18.86C12.993,18.86 13.024,19.406 13.598,19.406C13.598,19.406 12.99,19.922 11.484,19.922C9.978,19.922 9.549,19.436 9.549,19.436C9.549,19.436 10.262,19.438 10.262,18.807C10.262,18.174 10.242,12.973 10.242,12.973Z"/>
</svg>
