<svg xmlns="http://www.w3.org/2000/svg" viewBox="0 0 24 24" width="24" height="24">
  <path fill="#FFFFFF" d="M14.991,23.312c-0.315,0 -0.619,-0.083 -0.89,-0.241 -0.312,-0.184 -0.556,-0.455 -0.705,-0.784l-3.753,-7.931 -7.943,-3.758c-0.314,-0.143 -0.585,-0.386 -0.769,-0.697 -0.185,-0.313 -0.266,-0.668 -0.238,-1.029 0.029,-0.359 0.165,-0.697 0.395,-0.976 0.234,-0.282 0.541,-0.479 0.889,-0.574L19.44,2.404c0.297,-0.085 0.612,-0.091 0.913,-0.015 0.303,0.077 0.579,0.234 0.801,0.456s0.381,0.501 0.456,0.805c0.077,0.295 0.072,0.613 -0.016,0.914l-4.919,17.467c-0.096,0.343 -0.293,0.648 -0.571,0.878 -0.277,0.229 -0.614,0.367 -0.973,0.397 -0.047,0.003 -0.094,0.005 -0.141,0.005ZM14.75,21.491s0,0 0,0.002v-0.002ZM15.209,21.44l0.002,0.004s-0.002,-0.003 -0.002,-0.004ZM3.149,9.071l7.432,3.516c0.365,0.17 0.664,0.469 0.836,0.84l3.513,7.425 4.619,-16.4L3.149,9.071ZM9.729,14.396s0.001,0 0.002,0h-0.002ZM9.605,14.274v0.003s0,-0.003 0,-0.003ZM2.515,9.25h-0.003s0.002,0 0.003,0ZM2.542,8.784l0.007,0.003s-0.004,-0.002 -0.007,-0.003ZM19.672,4.013s0,0.002 0,0.003v-0.003ZM19.716,3.366h0.01,-0.01Z"/>
  <path fill="#FFFFFF" d="M10.397,14.604c-0.256,0 -0.512,-0.098 -0.707,-0.293 -0.391,-0.391 -0.391,-1.023 0,-1.414l4.238,-4.238c0.391,-0.391 1.023,-0.391 1.414,0s0.391,1.023 0,1.414l-4.238,4.238c-0.195,0.195 -0.451,0.293 -0.707,0.293Z"/>
</svg>
