<svg xmlns="http://www.w3.org/2000/svg" viewBox="0 0 24 24" width="24" height="24">
  <path fill="currentColor" d="M13.875,17.125H3.75c-0.552,0 -1,-0.447 -1,-1s0.448,-1 1,-1h10.125c0.553,0 1,0.447 1,1s-0.447,1 -1,1Z"/>
  <path fill="currentColor" d="M20.25,17.125h-2.625c-0.553,0 -1,-0.447 -1,-1s0.447,-1 1,-1h2.625c0.553,0 1,0.447 1,1s-0.447,1 -1,1Z"/>
  <path fill="currentColor" d="M15.75,19c-1.585,0 -2.875,-1.29 -2.875,-2.875s1.29,-2.875 2.875,-2.875 2.875,1.29 2.875,2.875 -1.29,2.875 -2.875,2.875Z"/>
  <path fill="currentColor" d="M7.875,8.875H3.75c-0.552,0 -1,-0.448 -1,-1s0.448,-1 1,-1h4.125c0.552,0 1,0.448 1,1s-0.448,1 -1,1Z"/>
  <path fill="currentColor" d="M20.25,8.875h-8.625c-0.552,0 -1,-0.448 -1,-1s0.448,-1 1,-1h8.625c0.553,0 1,0.448 1,1s-0.447,1 -1,1Z"/>
  <path fill="currentColor" d="M9.75,10.75c-1.585,0 -2.875,-1.29 -2.875,-2.875s1.29,-2.875 2.875,-2.875 2.875,1.29 2.875,2.875 -1.29,2.875 -2.875,2.875Z"/>
</svg>
