<svg xmlns="http://www.w3.org/2000/svg" viewBox="0 0 12 9" width="20" height="15">
  <path fill="currentColor" d="M0.668,1.334L10,1.334A0.667,0.667 0,0 1,10.667 2L10.667,2A0.667,0.667 0,0 1,10 2.667L0.668,2.667A0.667,0.667 0,0 1,0.001 2L0.001,2A0.667,0.667 0,0 1,0.668 1.334z"/>
  <path fill="currentColor" d="M11.332,5.666L2,5.666A0.667,0.667 90.072,0 0,1.333 6.333L1.333,6.333A0.667,0.667 90.072,0 0,2 6.999L11.332,6.999A0.667,0.667 90.072,0 0,11.999 6.333L11.999,6.333A0.667,0.667 90.072,0 0,11.332 5.666z"/>
  <path fill="currentColor" d="M10.001,2m-2,0a2,2 0,1 1,3.999 0a2,2 0,1 1,-3.999 0"/>
  <path fill="currentColor" d="M2,6.332m2,0a2,2 45,1 0,-3.999 0a2,2 135,1 0,3.999 0"/>
</svg>
