<svg xmlns="http://www.w3.org/2000/svg" viewBox="0 0 24 24" width="24" height="24">
  <path fill="currentColor" d="M4.594,19c-0.314,-0.002 -0.615,-0.085 -0.878,-0.238 -0.266,-0.154 -0.486,-0.376 -0.637,-0.641 -0.152,-0.266 -0.232,-0.567 -0.232,-0.872 0,-0.307 0.082,-0.607 0.233,-0.871 0.544,-0.939 1.189,-2.718 1.189,-5.878v-0.75c0,-1.025 0.198,-2.026 0.59,-2.974 0.393,-0.947 0.96,-1.795 1.688,-2.52 0.727,-0.724 1.577,-1.289 2.527,-1.678 0.95,-0.389 1.928,-0.599 2.978,-0.578 4.235,0.032 7.679,3.547 7.679,7.834v0.666c0,3.16 0.646,4.938 1.187,5.874 0.153,0.264 0.235,0.567 0.235,0.875 0,0.306 -0.08,0.607 -0.231,0.872 -0.151,0.264 -0.371,0.484 -0.636,0.64 -0.263,0.154 -0.564,0.237 -0.872,0.239H4.594ZM19.188,17.377h0,0ZM12.007,4c-0.748,0 -1.48,0.144 -2.175,0.428 -0.704,0.289 -1.335,0.708 -1.874,1.245 -0.54,0.538 -0.961,1.167 -1.252,1.869 -0.292,0.704 -0.439,1.446 -0.438,2.208h0v0.751c0,3.242 -0.641,5.287 -1.253,6.5h13.969c-0.612,-1.215 -1.253,-3.26 -1.253,-6.5v-0.666c0,-3.193 -2.554,-5.811 -5.692,-5.834h-0.032Z"/>
  <path fill="currentColor" d="M12,22.75c-1.068,0 -2.073,-0.416 -2.828,-1.172 -0.755,-0.755 -1.172,-1.76 -1.172,-2.828v-0.75c0,-0.553 0.448,-1 1,-1s1,0.447 1,1v0.75c0,0.534 0.208,1.036 0.586,1.414 0.745,0.744 2.084,0.744 2.828,0 0.378,-0.378 0.586,-0.88 0.586,-1.414v-0.75c0,-0.553 0.447,-1 1,-1s1,0.447 1,1v0.75c0,1.068 -0.416,2.072 -1.172,2.828s-1.76,1.172 -2.828,1.172Z"/>
</svg>
