<svg xmlns="http://www.w3.org/2000/svg" viewBox="0 0 24 24" width="24" height="24">
  <path fill="none" stroke="currentColor" stroke-width="2" stroke-linecap="round" stroke-linejoin="round"
    d="M12,12V12.01M14.828,9.172C15.578,9.922 15.999,10.939 15.999,12C15.999,13.061 15.578,14.078 14.828,14.828M17.657,6.343C18.4,7.086 18.989,7.968 19.391,8.938C19.793,9.909 20,10.949 20,12C20,13.051 19.793,14.091 19.391,15.062C18.989,16.032 18.4,16.914 17.657,17.657M9.168,14.828C8.418,14.078 7.997,13.061 7.997,12C7.997,10.939 8.418,9.922 9.168,9.172M6.337,17.657C5.594,16.914 5.005,16.032 4.603,15.062C4.201,14.091 3.994,13.051 3.994,12C3.994,10.949 4.201,9.909 4.603,8.938C5.005,7.968 5.594,7.086 6.337,6.343"/>
</svg>
