<svg xmlns="http://www.w3.org/2000/svg" viewBox="0 0 24 24" width="24" height="24">
  <path fill="currentColor" d="M21.706,3.036C20.964,3.364 20.498,4.085 20.445,4.859C19.883,4.446 19.109,4.35 18.441,4.626C18.462,4.7 18.494,4.806 18.547,4.88C18.801,5.474 19.289,5.856 19.851,6.036C19.544,6.524 19.109,6.959 18.621,7.266C18.42,7.425 18.187,7.467 17.9,7.499C17.232,7.573 16.596,7.213 16.289,6.651C16.034,7.086 15.599,7.393 15.059,7.467C14.773,7.489 14.497,7.467 14.242,7.34C14.136,7.287 14.041,7.213 13.956,7.16C13.415,6.778 12.96,6.259 12.62,5.644C12.493,5.411 12.387,5.156 12.313,4.87H12.334C12.97,4.796 13.564,4.435 13.924,3.841C13.946,3.788 13.999,3.714 14.03,3.661C13.977,3.608 13.903,3.587 13.85,3.534C13.309,3.227 12.694,3.152 12.154,3.333C12.08,3.354 12.026,3.386 11.952,3.407C11.974,2.665 11.412,1.53 10.722,1.127C10.648,1.074 10.542,1.021 10.436,1H10.415L10.362,1.053C10.309,1.127 10.256,1.212 10.203,1.286C9.789,1.975 9.917,3.205 10.277,3.852C10.203,3.852 10.15,3.873 10.076,3.873C9.514,4 8.994,4.34 8.687,4.87C8.666,4.923 8.613,4.997 8.581,5.05C8.634,5.103 8.708,5.124 8.761,5.177C9.355,5.538 10.044,5.559 10.659,5.305C10.659,5.305 10.68,5.305 10.68,5.283C10.733,5.57 10.786,5.824 10.786,6.1C10.807,6.715 10.68,7.308 10.457,7.839C10.457,7.86 10.457,7.892 10.436,7.892C10.415,7.945 10.383,7.998 10.362,8.051C10.309,8.178 10.235,8.305 10.16,8.411C9.98,8.613 9.747,8.793 9.493,8.899C8.984,9.1 8.443,9.026 8.029,8.74C8.029,9.376 7.648,10.001 7.001,10.256C6.842,10.309 6.693,10.362 6.534,10.362C5.866,10.362 5.199,10.182 4.615,9.853C5.029,9.44 5.252,8.856 5.209,8.21C5.209,8.104 5.188,7.955 5.156,7.849C4.414,7.955 3.82,8.591 3.513,8.952C3.099,8.591 2.357,7.976 1.541,8.029C1.36,8.051 1.159,8.135 1,8.188C1.901,8.856 2.771,9.62 3.587,10.394C4.149,10.956 4.711,11.518 5.252,12.132C5.994,12.981 7.255,14.667 7.255,14.667C7.414,14.868 8.029,15.154 8.464,15.133C8.538,15.133 8.57,15.059 8.57,15.027C8.57,14.974 8.496,14.953 8.464,14.953C8.104,14.794 7.955,14.592 7.849,14.285C7.616,13.543 9.821,12.207 13.055,11.39C16.289,10.574 18.876,10.669 19.024,11.443C19.077,11.772 19.077,12.005 18.823,12.313C18.801,12.334 18.748,12.419 18.77,12.44C18.791,12.461 18.844,12.514 18.929,12.493C19.31,12.313 19.745,11.772 19.777,11.518C19.777,11.518 20.137,9.418 20.371,8.337C20.551,7.542 20.752,6.768 20.986,6.026C21.314,4.944 21.728,3.873 22.215,2.845C22.056,2.93 21.887,2.951 21.706,3.036Z"/>
  <path fill="currentColor" d="M10.288,13.087C10.288,13.087 12.854,11.931 15.748,11.57C15.748,11.57 19.417,11.931 19.417,16.235C19.417,20.54 16.342,23 12.186,23C8.008,23 5.824,21.155 5.824,19.204C5.824,17.253 7.234,16.924 7.87,16.924C8.538,16.924 9.715,17.518 9.715,19.056C9.715,19.056 8.538,18.769 8.538,19.777C8.538,20.805 9.927,21.441 11.846,21.441C13.765,21.441 16.458,20.593 16.458,16.882C16.458,12.906 14.614,12.726 13.331,12.726V19.543C13.331,19.543 13.352,20.137 13.999,20.137C13.999,20.137 13.331,20.699 11.666,20.699C10.002,20.699 9.535,20.158 9.535,20.158C9.535,20.158 10.33,20.158 10.33,19.469C10.288,18.801 10.288,13.087 10.288,13.087Z"/>
</svg>
