<svg xmlns="http://www.w3.org/2000/svg" viewBox="0 0 24 24" width="24" height="24">
  <path fill="currentColor" d="M16.5,15.25c-0.256,0 -0.512,-0.098 -0.707,-0.293 -0.391,-0.391 -0.391,-1.023 0,-1.414l3.793,-3.793 -3.793,-3.793c-0.391,-0.391 -0.391,-1.023 0,-1.414s1.023,-0.391 1.414,0l4.5,4.5c0.391,0.391 0.391,1.023 0,1.414l-4.5,4.5c-0.195,0.195 -0.451,0.293 -0.707,0.293Z"/>
  <path fill="currentColor" d="M18,21.25H3.75c-0.46,0 -0.912,-0.187 -1.237,-0.513 -0.331,-0.33 -0.513,-0.77 -0.513,-1.237v-11.25c0,-0.552 0.448,-1 1,-1s1,0.448 1,1v11h14c0.553,0 1,0.447 1,1s-0.447,1 -1,1Z"/>
  <path fill="currentColor" d="M7.032,17.5c-0.083,0 -0.167,-0.01 -0.251,-0.032 -0.535,-0.139 -0.855,-0.684 -0.717,-1.219 0.553,-2.135 1.818,-4.054 3.562,-5.404 1.744,-1.351 3.919,-2.094 6.125,-2.095h5.25c0.553,0 1,0.448 1,1s-0.447,1 -1,1h-5.25c-1.765,0 -3.505,0.596 -4.9,1.676 -1.396,1.081 -2.408,2.616 -2.85,4.325 -0.117,0.45 -0.523,0.749 -0.968,0.749Z"/>
</svg>
