<svg xmlns="http://www.w3.org/2000/svg" viewBox="0 0 24 24" width="24" height="24">
  <path fill="currentColor" d="M20.544,12.25h-2.544c-0.553,0 -1,-0.448 -1,-1s0.447,-1 1,-1h2.382l1.552,-3.103 -4.43,-2.528c-0.479,-0.274 -0.646,-0.885 -0.372,-1.364 0.273,-0.479 0.881,-0.647 1.364,-0.373l4.631,2.644c0.394,0.228 0.679,0.588 0.808,1.018 0.13,0.428 0.092,0.884 -0.105,1.286l-1.729,3.456c-0.144,0.288 -0.365,0.533 -0.641,0.704 -0.276,0.171 -0.593,0.262 -0.916,0.262Z"/>
  <path fill="currentColor" d="M3.454,12.25c-0.321,0 -0.639,-0.091 -0.915,-0.262 -0.274,-0.169 -0.497,-0.414 -0.642,-0.706L0.174,7.835c-0.201,-0.406 -0.239,-0.863 -0.109,-1.292 0.129,-0.429 0.414,-0.789 0.802,-1.014l4.638,-2.647c0.48,-0.271 1.091,-0.106 1.364,0.373 0.273,0.479 0.107,1.09 -0.373,1.364l-4.429,2.528 1.551,3.103h2.382c0.552,0 1,0.448 1,1s-0.448,1 -1,1h-2.546Z"/>
  <path fill="currentColor" d="M17.25,21.25H6.75c-0.46,0 -0.912,-0.187 -1.237,-0.513 -0.331,-0.33 -0.513,-0.77 -0.513,-1.237V3.75c0,-0.552 0.448,-1 1,-1h3c0.552,0 1,0.448 1,1 0,0.534 0.208,1.036 0.586,1.414 0.756,0.757 2.072,0.756 2.828,0 0.372,-0.373 0.586,-0.888 0.586,-1.414 0,-0.552 0.447,-1 1,-1h3c0.553,0 1,0.448 1,1v15.75c0,0.468 -0.182,0.907 -0.513,1.237 -0.33,0.331 -0.77,0.513 -1.237,0.513ZM7,19.25h10V4.75h-1.125c-0.176,0.686 -0.533,1.314 -1.047,1.828 -0.755,0.755 -1.76,1.172 -2.828,1.172s-2.073,-0.417 -2.829,-1.172c-0.514,-0.513 -0.87,-1.142 -1.046,-1.828h-1.125v14.5Z"/>
</svg>
